<svg xmlns="http://www.w3.org/2000/svg" width="375" viewBox="0 0 375 375" height="375" version="1.0"><defs><clipPath id="a"><path d="M 108.90625 229.296875 L 374.820312 229.296875 L 374.820312 266.25 L 108.90625 266.25 Z M 108.90625 229.296875"/></clipPath><clipPath id="b"><path d="M 0.179688 108.75 L 342.910156 108.75 L 342.910156 266.25 L 0.179688 266.25 Z M 0.179688 108.75"/></clipPath><clipPath id="c"><path d="M 29.332031 114.265625 L 307.457031 114.265625 L 307.457031 266.25 L 29.332031 266.25 Z M 29.332031 114.265625"/></clipPath></defs><g clip-path="url(#a)"><path fill="#7ED957" d="M 311.316406 238.910156 L 311.476562 266.171875 L 374.820312 266.171875 L 344.566406 231.742188 Z M 167.761719 252.699219 L 188.640625 266.171875 L 108.988281 266.171875 L 132.152344 229.691406 L 167.761719 252.699219"/></g><g clip-path="url(#b)"><path fill="#A3E265" d="M 320.535156 185.570312 L 289.964844 195.890625 L 310.292969 235.125 L 342.28125 228.195312 Z M 224.886719 201.640625 L 182.417969 179.898438 L 196.207031 261.679688 L 224.648438 202.195312 Z M 228.429688 203.453125 L 198.492188 266.25 L 252.222656 266.25 L 259.945312 219.605469 Z M 56.433594 234.105469 L 25.863281 212.832031 L 0.179688 266.25 L 40.597656 266.25 L 43.59375 260.183594 Z M 61.320312 231.265625 L 128.210938 225.277344 L 86.296875 156.8125 L 66.675781 199.199219 Z M 176.429688 177.214844 L 144.519531 165.085938 L 133.570312 160.90625 L 133.570312 222.125 L 142.867188 212.4375 Z M 183.050781 172.804688 L 202.746094 108.75 L 251.597656 141.527344 Z M 183.050781 172.804688"/></g><g clip-path="url(#c)"><path fill="#008037" d="M 60.214844 235.285156 L 45.007812 266.25 L 104.261719 266.25 L 127.660156 229.296875 Z M 286.65625 198.019531 L 263.886719 219.449219 L 256.164062 266.25 L 307.457031 266.25 L 307.300781 237.882812 Z M 178.554688 180.605469 L 134.515625 226.621094 L 141.449219 231.109375 L 192.660156 264.121094 L 179.582031 186.4375 Z M 129.550781 159.804688 L 89.839844 155.15625 L 129.550781 220 L 129.550781 159.726562 Z M 57.539062 230.085938 L 62.34375 201.40625 L 29.644531 210.703125 Z M 251.515625 145.9375 L 184.386719 176.507812 L 226.617188 198.097656 Z M 196.675781 114.972656 L 166.421875 152.871094 C 166.128906 153.246094 165.710938 153.492188 165.242188 153.578125 L 138.691406 158.625 L 178.636719 173.832031 Z M 230.875 198.257812 L 255.851562 146.019531 L 284.765625 194.394531 L 261.757812 216.058594 L 230.164062 199.910156 L 230.875 198.257812"/></g></svg>